<?xml version="1.0" standalone="no"?>
<!DOCTYPE svg PUBLIC "-//W3C//DTD SVG 20010904//EN"
 "http://www.w3.org/TR/2001/REC-SVG-20010904/DTD/svg10.dtd">
<svg version="1.0" xmlns="http://www.w3.org/2000/svg"
 width="225.000000pt" height="225.000000pt" viewBox="0 0 225.000000 225.000000"
 preserveAspectRatio="xMidYMid meet">

<g transform="translate(0.000000,225.000000) scale(0.100000,-0.100000)"
fill="#000000" stroke="none">
<path d="M1535 1926 c-18 -13 -18 -15 3 -66 12 -29 21 -54 20 -56 -2 -1 -23 1
-48 6 -25 5 -46 7 -47 6 -5 -4 76 -191 84 -193 4 -2 14 1 22 6 12 8 11 18 -7
66 l-22 58 49 -7 50 -7 -33 83 c-46 119 -48 121 -71 104z"/>
<path d="M990 1776 l0 -153 -29 -6 c-38 -8 -98 -68 -108 -108 l-8 -31 -121 -4
c-72 -2 -138 -10 -164 -19 -116 -41 -209 -155 -240 -295 -15 -70 -13 -505 4
-565 25 -95 60 -141 128 -170 50 -20 87 -19 160 6 l61 20 25 -32 c28 -34 76
-59 118 -59 15 0 33 -10 44 -22 18 -22 24 -23 236 -26 120 -2 229 -1 241 3 13
3 32 14 43 25 18 18 20 34 20 204 l0 183 62 13 c89 17 148 51 234 132 124 118
233 306 234 404 0 77 -44 143 -120 177 -38 17 -70 21 -225 24 l-180 3 -22 44
c-23 46 -83 96 -115 96 -16 0 -18 13 -18 155 l0 155 -130 0 -130 0 0 -154z
m205 87 c-2 -10 -4 -21 -4 -25 -1 -5 -32 -8 -71 -8 -68 0 -70 1 -70 25 0 24 2
25 74 25 65 0 74 -2 71 -17z m-5 -133 l0 -50 -70 0 -70 0 0 50 0 50 70 0 70 0
0 -50z m-477 -317 c-7 -2 -21 -2 -30 0 -10 3 -4 5 12 5 17 0 24 -2 18 -5z
m1108 -30 c13 -17 13 -17 -6 -3 -11 8 -22 16 -24 17 -2 2 0 3 6 3 6 0 17 -8
24 -17z m-751 3 c0 -2 -9 -6 -20 -9 -11 -3 -18 -1 -14 4 5 9 34 13 34 5z m190
-6 c-8 -5 -19 -10 -25 -10 -5 0 -3 5 5 10 8 5 20 10 25 10 6 0 3 -5 -5 -10z
m-773 -44 c-3 -7 0 -20 6 -27 9 -9 7 -9 -6 1 -16 12 -20 12 -28 -1 -5 -8 -9
-10 -9 -5 0 10 30 46 38 46 2 0 2 -6 -1 -14z m1253 10 c0 -2 -8 -10 -17 -17
-16 -13 -17 -12 -4 4 13 16 21 21 21 13z m-543 -12 c-3 -3 -12 -4 -19 -1 -8 3
-5 6 6 6 11 1 17 -2 13 -5z m-63 -53 c-4 -17 -9 -30 -11 -27 -3 2 -2 19 2 36
9 41 17 33 9 -9z m373 17 c-3 -8 -6 -5 -6 6 -1 11 2 17 5 13 3 -3 4 -12 1 -19z
m103 18 c0 -2 -6 -9 -13 -15 -10 -8 -14 -7 -14 4 0 8 6 15 14 15 7 0 13 -2 13
-4z m-950 -15 c0 -5 -9 -7 -20 -4 -11 3 -20 7 -20 9 0 2 9 4 20 4 11 0 20 -4
20 -9z m704 1 c2 -4 -4 -8 -14 -8 -10 0 -16 4 -14 8 3 4 9 8 14 8 5 0 11 -4
14 -8z m13 -44 c-3 -8 -6 -5 -6 6 -1 11 2 17 5 13 3 -3 4 -12 1 -19z m-813 -1
c-3 -8 -12 -14 -21 -14 -13 0 -13 2 3 14 10 7 19 13 21 13 1 0 0 -6 -3 -13z
m279 -8 c-15 -15 -5 -39 21 -49 16 -7 17 -9 4 -9 -9 -1 -24 9 -32 20 -15 22
-12 49 7 49 8 0 8 -3 0 -11z m348 -55 c-5 -16 -10 -21 -10 -12 -1 18 10 51 15
45 2 -1 -1 -16 -5 -33z m424 25 c-5 -6 -55 0 -55 7 0 3 13 3 29 2 16 -1 28 -5
26 -9z m-254 -32 c-10 -9 -11 -8 -5 6 3 10 9 15 12 12 3 -3 0 -11 -7 -18z
m-966 -11 c0 -15 -4 -21 -9 -16 -5 5 -6 16 -3 24 9 22 12 20 12 -8z m650 4
c-3 -5 -14 -10 -23 -9 -14 0 -13 2 3 9 27 11 27 11 20 0z m-308 -6 c-3 -3 -12
-4 -19 -1 -8 3 -5 6 6 6 11 1 17 -2 13 -5z m58 -23 l20 -24 -22 14 c-13 8 -23
20 -23 28 0 8 1 12 3 10 1 -2 11 -15 22 -28z m730 19 c-3 -5 -14 -10 -23 -9
-14 0 -13 2 3 9 27 11 27 11 20 0z m285 0 c0 -5 -4 -10 -10 -10 -5 0 -10 5
-10 10 0 6 5 10 10 10 6 0 10 -4 10 -10z m-1167 -7 c-7 -2 -19 -2 -25 0 -7 3
-2 5 12 5 14 0 19 -2 13 -5z m351 -2 c4 -5 -3 -7 -14 -4 -23 6 -26 13 -6 13 8
0 17 -4 20 -9z m471 -9 c-3 -3 -11 0 -18 7 -9 10 -8 11 6 5 10 -3 15 -9 12
-12z m115 9 c0 -5 -9 -7 -20 -4 -11 3 -20 7 -20 9 0 2 9 4 20 4 11 0 20 -4 20
-9z m-1153 -23 c-3 -8 -6 -5 -6 6 -1 11 2 17 5 13 3 -3 4 -12 1 -19z m156 -23
c-3 -9 -8 -14 -10 -11 -3 3 -2 9 2 15 9 16 15 13 8 -4z m504 -17 c-3 -8 -6 -5
-6 6 -1 11 2 17 5 13 3 -3 4 -12 1 -19z m-420 -4 c-3 -3 -12 -4 -19 -1 -8 3
-5 6 6 6 11 1 17 -2 13 -5z m863 2 c0 -2 -7 -7 -16 -10 -8 -3 -12 -2 -9 4 6
10 25 14 25 6z m-763 -38 c-3 -8 -6 -5 -6 6 -1 11 2 17 5 13 3 -3 4 -12 1 -19z
m410 -30 c-3 -7 -5 -2 -5 12 0 14 2 19 5 13 2 -7 2 -19 0 -25z m-280 16 c-3
-3 -12 -4 -19 -1 -8 3 -5 6 6 6 11 1 17 -2 13 -5z m811 -19 c-3 -3 -9 2 -12
12 -6 14 -5 15 5 6 7 -7 10 -15 7 -18z m-858 11 c0 -2 -7 -7 -16 -10 -8 -3
-12 -2 -9 4 6 10 25 14 25 6z m481 -43 c13 -16 12 -17 -3 -4 -17 13 -22 21
-14 21 2 0 10 -8 17 -17z m-224 -15 c-3 -8 -6 -5 -6 6 -1 11 2 17 5 13 3 -3 4
-12 1 -19z m-526 -11 c-10 -9 -11 -8 -5 6 3 10 9 15 12 12 3 -3 0 -11 -7 -18z
m1069 3 c0 -5 -5 -10 -11 -10 -5 0 -7 5 -4 10 3 6 8 10 11 10 2 0 4 -4 4 -10z
m-322 -40 c-7 -10 -14 -17 -17 -15 -4 4 18 35 25 35 2 0 -1 -9 -8 -20z m-961
-97 c-2 -16 -4 -3 -4 27 0 30 2 43 4 28 2 -16 2 -40 0 -55z m150 45 c-3 -7 -5
-2 -5 12 0 14 2 19 5 13 2 -7 2 -19 0 -25z m570 -14 c-3 -3 -12 -4 -19 -1 -8
3 -5 6 6 6 11 1 17 -2 13 -5z m-690 -26 c-3 -8 -6 -5 -6 6 -1 11 2 17 5 13 3
-3 4 -12 1 -19z m123 12 c0 -5 -5 -10 -11 -10 -5 0 -7 5 -4 10 3 6 8 10 11 10
2 0 4 -4 4 -10z m1060 6 c0 -3 -4 -8 -10 -11 -5 -3 -10 -1 -10 4 0 6 5 11 10
11 6 0 10 -2 10 -4z m-1063 -68 c-3 -8 -6 -5 -6 6 -1 11 2 17 5 13 3 -3 4 -12
1 -19z m676 15 c-7 -2 -19 -2 -25 0 -7 3 -2 5 12 5 14 0 19 -2 13 -5z m234 -9
c-3 -3 -12 -4 -19 -1 -8 3 -5 6 6 6 11 1 17 -2 13 -5z m-1060 -26 c-3 -8 -6
-5 -6 6 -1 11 2 17 5 13 3 -3 4 -12 1 -19z m806 -15 c-7 -2 -19 -2 -25 0 -7 3
-2 5 12 5 14 0 19 -2 13 -5z m-237 -28 c-11 -8 -27 -15 -35 -15 -9 1 -2 7 14
15 39 18 44 18 21 0z m93 -14 c-14 -5 -35 -14 -47 -20 -12 -6 -22 -9 -22 -7 0
10 55 35 75 35 16 -1 14 -2 -6 -8z m-652 -33 c-3 -7 -5 -2 -5 12 0 14 2 19 5
13 2 -7 2 -19 0 -25z m113 -10 c0 -6 -6 -5 -15 2 -8 7 -15 14 -15 16 0 2 7 1
15 -2 8 -4 15 -11 15 -16z m230 8 c0 -2 -7 -7 -16 -10 -8 -3 -12 -2 -9 4 6 10
25 14 25 6z m381 -23 c-14 -27 -140 -148 -200 -193 -68 -51 -92 -57 -133 -33
-47 27 -47 53 -1 79 21 11 72 40 113 64 79 46 196 99 218 100 9 0 10 -5 3 -17z
m-288 -24 c-6 -6 -9 -19 -6 -28 4 -13 3 -13 -5 -2 -12 16 -5 41 11 41 8 0 8
-3 0 -11z m-33 -43 c0 -2 -8 -10 -17 -17 -16 -13 -17 -12 -4 4 13 16 21 21 21
13z m-80 -26 c0 -5 -5 -10 -11 -10 -5 0 -7 5 -4 10 3 6 8 10 11 10 2 0 4 -4 4
-10z m-35 -20 c3 -6 -1 -7 -9 -4 -18 7 -21 14 -7 14 6 0 13 -4 16 -10z"/>
<path d="M1866 1735 c-15 -25 -30 -45 -35 -45 -4 0 -15 16 -25 37 -21 43 -23
42 -88 -68 -44 -74 -45 -76 -25 -88 22 -14 20 -15 59 52 12 20 24 37 28 37 3
0 15 -19 26 -42 l21 -42 56 94 c40 68 53 96 44 102 -23 15 -35 8 -61 -37z"/>
</g>
</svg>
